<svg width="105" height="105" viewBox="0 0 105 105" fill="none" xmlns="http://www.w3.org/2000/svg">
<circle cx="52.5" cy="52.5" r="52.5" fill="#508991"/>
<path d="M28 76V64.6667L63.2 29.5333C63.7333 29.0444 64.3227 28.6667 64.968 28.4C65.6133 28.1333 66.2907 28 67 28C67.7093 28 68.3982 28.1333 69.0667 28.4C69.7351 28.6667 70.3129 29.0667 70.8 29.6L74.4667 33.3333C75 33.8222 75.3893 34.4 75.6347 35.0667C75.88 35.7333 76.0018 36.4 76 37.0667C76 37.7778 75.8782 38.456 75.6347 39.1013C75.3911 39.7467 75.0018 40.3351 74.4667 40.8667L39.3333 76H28ZM66.9333 40.8L70.6667 37.0667L66.9333 33.3333L63.2 37.0667L66.9333 40.8Z" fill="white"/>
</svg>
